<?xml version="1.0" standalone="no"?>
<!DOCTYPE svg PUBLIC "-//W3C//DTD SVG 20010904//EN"
 "http://www.w3.org/TR/2001/REC-SVG-20010904/DTD/svg10.dtd">
<svg version="1.0" xmlns="http://www.w3.org/2000/svg"
 width="495.000000pt" height="495.000000pt" viewBox="0 0 495.000000 495.000000"
 preserveAspectRatio="xMidYMid meet">

<g transform="translate(0.000000,495.000000) scale(0.100000,-0.100000)"
fill="#000000" stroke="none">
<path d="M3920 4381 c-23 -15 -343 -326 -712 -692 -369 -365 -686 -672 -704
-682 -32 -16 -36 -16 -67 -1 -17 9 -117 101 -222 204 -189 188 -218 209 -267
196 -13 -3 -112 -92 -221 -198 l-198 -193 1 -44 c0 -44 0 -44 208 -244 114
-111 320 -313 457 -449 185 -183 257 -248 274 -248 17 0 62 37 155 128 72 70
136 132 142 137 7 6 205 201 440 435 236 234 601 595 811 804 398 394 413 411
385 462 -19 35 -381 387 -411 400 -27 11 -34 10 -71 -15z"/>
</g>
</svg>
